<svg width="190" height="190" viewBox="0 0 190 190" fill="none" xmlns="http://www.w3.org/2000/svg">
<rect width="190" height="190" rx="20" fill="white"/>
<g filter="url(#filter0_d_2329_2438)">
<path d="M47.5581 89.287L23.6677 107.902H47.5581V111.625H17.5V107.902L41.5391 89.287H17.5V85.564H47.5581V89.287Z" fill="#F8881C"/>
</g>
<g filter="url(#filter1_d_2329_2438)">
<path d="M75.0158 111.625H56.4385C55.2893 111.636 54.1589 111.333 53.1689 110.748C52.1944 110.181 51.3813 109.374 50.8075 108.402C50.2367 107.398 49.9365 106.263 49.9365 105.107C49.9365 103.952 50.2367 102.816 50.8075 101.812C51.3813 100.841 52.1944 100.033 53.1689 99.4669C54.1592 98.8833 55.2897 98.5815 56.4385 98.5941H69.4426V102.317H56.4385C55.6994 102.317 54.9907 102.611 54.4681 103.135C53.9455 103.659 53.6519 104.369 53.6519 105.109C53.6519 105.85 53.9455 106.56 54.4681 107.084C54.9907 107.608 55.6994 107.902 56.4385 107.902H71.3004V97.6509C71.2993 96.9107 71.0053 96.2011 70.483 95.6777C69.9606 95.1543 69.2525 94.8597 68.5138 94.8586H53.6519V91.1356H68.5138C69.6738 91.1167 70.8166 91.4187 71.8164 92.0085C72.7827 92.5785 73.5883 93.3857 74.1572 94.354C74.7468 95.3556 75.0496 96.5006 75.0324 97.6633L75.0158 111.625Z" fill="#F8881C"/>
</g>
<g filter="url(#filter2_d_2329_2438)">
<path d="M100.501 94.8573H86.5682C85.8295 94.8584 85.1213 95.153 84.599 95.6764C84.0766 96.1998 83.7827 96.9094 83.7816 97.6496V111.623H80.0661V97.6496C80.0489 96.4869 80.3518 95.3419 80.9414 94.3403C81.5136 93.3689 82.3253 92.5613 83.2986 91.9947C84.2894 91.4122 85.4195 91.1105 86.5682 91.1219H100.501V94.8573Z" fill="#F8881C"/>
</g>
<g filter="url(#filter3_d_2329_2438)">
<path d="M102.654 88.7155C101.506 88.6411 100.388 88.3432 100.388 87.4497C100.388 86.9657 100.834 86.6224 101.469 86.6224C102.473 86.6224 103.946 87.2925 105.366 88.3722C109.305 88.0371 115.547 84.1279 115.547 76.9424C115.547 73.1822 113.169 70.8366 109.899 70.8366C106.853 70.8366 104.661 72.5865 104.661 74.9734C104.661 75.8297 105.144 76.7232 106.035 76.7232C106.309 76.7205 106.578 76.6554 106.823 76.5329C107.067 76.4103 107.281 76.2335 107.447 76.0158C107.735 76.0106 108.02 76.0641 108.287 76.1731C108.553 76.2821 108.794 76.4444 108.996 76.6499C109.197 76.8554 109.355 77.1 109.459 77.3686C109.564 77.6373 109.612 77.9244 109.602 78.2124C109.603 78.5232 109.54 78.8309 109.417 79.1163C109.294 79.4017 109.114 79.6588 108.888 79.8717C108.662 80.0846 108.395 80.2488 108.103 80.354C107.811 80.4592 107.501 80.5033 107.191 80.4835C105.181 80.4835 103.694 78.8288 103.694 76.4998C103.694 72.814 106.964 69.9845 111.014 69.9845C116.067 69.9845 119.337 73.1118 119.337 77.9146C119.337 80.4462 117.962 82.7173 115.733 84.5044C126.285 78.473 137.059 64.9956 150.324 64.9956C160.058 64.9956 164.925 72.5162 164.925 78.2869C164.925 82.9779 162.919 86.2542 158.733 86.2542C154.547 86.2542 151.562 82.7545 151.562 77.9518C151.562 74.75 153.085 72.5741 155.463 72.5741C155.78 72.5663 156.094 72.6223 156.388 72.7388C156.682 72.8554 156.95 73.03 157.175 73.2523C157.4 73.4746 157.579 73.7401 157.7 74.0329C157.82 74.3258 157.881 74.64 157.878 74.9568C157.889 75.2449 157.84 75.532 157.736 75.8006C157.632 76.0692 157.474 76.3138 157.272 76.5193C157.07 76.7249 156.829 76.8871 156.563 76.9961C156.297 77.1051 156.011 77.1586 155.723 77.1534C155.493 76.835 155.192 76.575 154.844 76.394C154.495 76.213 154.109 76.1161 153.717 76.111C153.471 76.0916 153.224 76.1253 152.993 76.2096C152.761 76.2939 152.55 76.427 152.374 76.5998C152.198 76.7727 152.061 76.9813 151.972 77.2116C151.884 77.442 151.845 77.6887 151.859 77.9353C151.859 80.7275 154.534 82.7752 158.213 82.7752C161.371 82.7752 164.492 81.0254 164.492 77.3023C164.492 72.5368 160.405 69.5212 154.869 69.5212C135.103 69.5212 116.934 88.2109 105.742 88.6576C107.559 90.0724 108.933 91.9339 108.933 94.2794V102.193C112.091 102.193 113.28 99.8474 113.28 98.805C113.25 98.3107 113.107 97.83 112.862 97.3998C112.617 96.9696 112.277 96.6012 111.869 96.323C111.869 95.4837 112.201 94.6787 112.794 94.0853C113.386 93.4918 114.189 93.1584 115.027 93.1584C115.864 93.1584 116.668 93.4918 117.26 94.0853C117.852 94.6787 118.185 95.4837 118.185 96.323C118.185 98.2962 116.624 99.8598 114.618 100.94L118.482 108.013C119.24 109.31 120.282 110.418 121.529 111.252V111.439C121.529 111.55 121.454 111.625 121.417 111.625H116.662C115.825 111.633 115.002 111.412 114.281 110.986C113.561 110.559 112.971 109.943 112.574 109.205L108.933 102.503V108.199C108.933 109.689 109.305 110.88 110.271 111.327V111.476C110.268 111.514 110.251 111.551 110.224 111.578C110.197 111.605 110.161 111.622 110.122 111.625H101.725C101.687 111.622 101.652 111.605 101.625 111.578C101.598 111.55 101.583 111.514 101.581 111.476V111.327C102.543 110.88 102.918 109.672 102.918 108.199V90.8377C102.906 89.758 102.881 89.1251 102.654 88.7155Z" fill="url(#paint0_linear_2329_2438)"/>
</g>
<g filter="url(#filter4_d_2329_2438)">
<path d="M148.468 111.624H144.752V101.373C144.765 100.229 144.47 99.1033 143.898 98.1135C143.337 97.1417 142.538 96.3289 141.578 95.7514C140.598 95.1555 139.471 94.846 138.325 94.8579H128.09V111.624H124.375V83.7012H128.09V91.1473H138.308C139.669 91.1361 141.017 91.4079 142.267 91.9456C144.704 93.005 146.64 94.9653 147.671 97.4185C148.196 98.6743 148.462 100.024 148.451 101.386L148.468 111.624Z" fill="#F8881C"/>
</g>
<g filter="url(#filter5_d_2329_2438)">
<path d="M176.742 111.625H158.165C157.016 111.635 155.885 111.332 154.895 110.748C153.922 110.181 153.11 109.374 152.538 108.402C151.963 107.4 151.661 106.264 151.661 105.107C151.661 103.951 151.963 102.815 152.538 101.812C153.11 100.841 153.922 100.033 154.895 99.4669C155.886 98.8844 157.016 98.5827 158.165 98.5941H171.169V102.317H158.165C157.426 102.317 156.717 102.611 156.194 103.135C155.672 103.659 155.378 104.369 155.378 105.109C155.378 105.85 155.672 106.56 156.194 107.084C156.717 107.608 157.426 107.902 158.165 107.902H173.027V97.6509C173.025 96.9107 172.732 96.2011 172.209 95.6777C171.687 95.1543 170.979 94.8597 170.24 94.8586H155.378V91.1356H170.24C171.4 91.1169 172.543 91.4189 173.543 92.0084C174.509 92.5785 175.314 93.3857 175.883 94.3539C176.472 95.3559 176.773 96.5009 176.754 97.6633L176.742 111.625Z" fill="#F8881C"/>
</g>
<g clip-path="url(#clip0_2329_2438)">
<path d="M7.84579 80.6172C8.10775 80.2896 8.23618 79.875 8.20532 79.4566C8.17447 79.0383 7.98662 78.6471 7.67943 78.3614C7.3654 78.0683 6.95184 77.9053 6.52229 77.9053C6.09274 77.9053 5.67919 78.0683 5.36516 78.3614L4.4583 79.211C4.4583 79.211 2.38398 78.4571 1.4889 78.6471C1.43407 78.6587 1.38234 78.6818 1.33706 78.7148C1.29179 78.7479 1.254 78.7901 1.2262 78.8387C1.19839 78.8874 1.1812 78.9414 1.17573 78.9972C1.17026 79.053 1.17664 79.1093 1.19446 79.1624C1.43295 79.8633 2.38399 81.695 5.95698 82.5682C6.23964 82.6359 6.51886 82.7139 6.79465 82.8023C7.65735 83.0762 9.93334 83.5694 11.1641 81.6317C11.1641 81.6317 9.33122 82.041 8.72615 81.6155L7.91498 81.0692C7.87966 81.045 7.84969 81.0137 7.82692 80.9774C7.80415 80.9411 7.78906 80.9005 7.78258 80.8582C7.77609 80.8158 7.77835 80.7726 7.78922 80.7311C7.8001 80.6897 7.81935 80.6509 7.84579 80.6172Z" fill="#F8881C"/>
<g filter="url(#filter6_d_2329_2438)">
<path d="M6.65132 84.7279H7.91593C7.91593 84.7279 8.20006 83.3099 7.91593 83.3099C7.91593 83.3099 5.95351 83.7517 4.25314 82.481C4.25314 82.481 3.94104 84.0565 4.59468 84.5041C4.65938 84.5511 4.70955 84.6154 4.73948 84.6896C4.76942 84.7638 4.77791 84.8449 4.76399 84.9237C4.68744 85.4243 4.43127 86.3196 3.59801 86.3196C3.59801 86.3196 2.50124 86.0737 1.51341 88.007C1.23292 88.5433 1.10825 89.1474 1.15353 89.7509C1.19881 90.3544 1.41221 90.9332 1.76957 91.4216L1.79754 91.4584C1.84982 91.5244 1.88655 91.6014 1.905 91.6837C2.05526 92.4796 2.07465 93.2948 1.96242 94.097C1.88623 94.6551 1.75405 95.2041 1.56788 95.7358C1.32791 96.4367 0.797922 98.3346 1.02022 100.908C1.03789 101.104 1.06439 101.297 1.09383 101.497C1.18363 102.078 1.38827 103.412 1.60616 104.629C1.74454 105.426 1.91973 106.215 2.13173 106.995C2.38936 107.938 2.73679 109.824 2.01394 111.46L1.99628 111.495C1.87998 111.716 0.724314 113.87 0 114.16C0 114.16 4.1545 115.899 7.32705 114.72C7.97401 114.468 8.67609 114.393 9.36161 114.502C10.4908 114.695 12.6299 114.478 15.7686 111.76C15.7686 111.76 11.2416 111.672 8.08081 107.745C7.56173 107.108 7.20308 106.356 7.03502 105.552C6.86696 104.748 6.89441 103.916 7.11506 103.124L7.15922 102.977C7.16892 102.946 7.18175 102.916 7.1975 102.887C7.41097 102.513 8.99651 99.5008 6.95753 95.727L4.98628 92.4567C4.97816 92.4426 4.9688 92.4293 4.95831 92.4169C4.77723 92.1784 2.83395 89.5545 4.26344 87.4107C4.31189 87.3379 4.38084 87.2811 4.46155 87.2476C4.54227 87.214 4.63113 87.2052 4.71688 87.2222C5.18209 87.3105 6.14489 87.4033 6.77793 86.8467C6.82269 86.8067 6.85883 86.758 6.88414 86.7036C6.90945 86.6492 6.92341 86.5901 6.92515 86.5301L6.9752 85.1858C6.97845 85.0857 6.94759 84.9874 6.88767 84.9072C6.82775 84.8269 6.74233 84.7694 6.64543 84.7441L6.65132 84.7279Z" fill="url(#paint1_linear_2329_2438)"/>
</g>
<path d="M6.92419 94.5617L5.75823 93.7975H4.95146C4.95146 93.7975 4.63495 94.1037 5.36515 94.1361L5.58304 94.1803L5.0604 94.2672C5.0604 94.2672 4.78806 94.6044 5.2886 94.5617C5.78914 94.519 5.69786 94.5337 5.69786 94.5337L5.32246 94.6485C5.32246 94.6485 5.07071 94.7796 5.37693 94.8724H5.81858C5.81858 94.8724 5.70375 95.6248 6.77255 95.3906C7.38176 95.5284 8.01968 95.4552 8.58187 95.183C8.58187 95.183 11.5704 93.6458 12.1917 92.6313C12.1917 92.6313 12.8129 92.0909 12.0121 90.8644C11.3098 89.7895 9.14129 87.4101 8.61278 86.8358C8.50504 86.7191 8.3799 86.6198 8.2418 86.5413C7.85756 86.3278 7.08172 86.2306 6.45604 87.1009C6.45604 87.1009 3.47929 86.1084 3.60442 88.7205C3.60442 88.7205 3.53081 91.8053 5.61395 93.5501C5.61395 93.5501 5.70228 90.2725 7.76481 89.2285L10.163 91.6492L10.2454 91.8465L8.51415 93.4544C8.27565 93.674 8.05188 93.9091 7.84431 94.1582C7.65734 94.382 7.32315 94.6809 6.92419 94.5617Z" fill="#F8881C"/>
<path d="M4.06588 115.104L4.01878 118.806C4.01697 119.413 3.89227 120.014 3.65219 120.573C3.55402 120.804 3.42583 121.022 3.2709 121.22L2.12407 122.476C2.03892 122.57 1.96933 122.676 1.91797 122.792H2.83366C3.30967 122.792 3.77447 122.647 4.16599 122.376L5.29957 121.591L5.39674 118.473L5.70295 116.182L5.85017 116.073L5.54543 121.625C5.54543 121.625 7.21341 121.636 7.43277 118.745C7.43277 118.745 7.46515 118.386 7.66095 118.614L7.98777 120L8.05402 120.207V117.684C8.05402 117.684 8.03194 116.671 7.0235 116.562L7.00583 114.826L4.06588 115.104Z" fill="#F8881C"/>
</g>
<rect x="179.863" y="90.4062" width="9.18388" height="22.2323" rx="2.01137" fill="#F8881C"/>
<g filter="url(#filter7_d_2329_2438)">
<path d="M186.299 107.625C186.299 107.748 186.256 107.853 186.169 107.941C186.081 108.028 185.975 108.072 185.852 108.072C185.731 108.072 185.626 108.028 185.539 107.941C185.452 107.853 185.409 107.748 185.409 107.625C185.409 107.506 185.452 107.401 185.539 107.312C185.626 107.222 185.731 107.178 185.852 107.178C185.934 107.178 186.009 107.199 186.078 107.241C186.145 107.282 186.199 107.336 186.24 107.403C186.28 107.47 186.299 107.544 186.299 107.625ZM183.772 103.145V103.961C183.666 103.976 183.572 104.006 183.49 104.052C183.407 104.098 183.336 104.157 183.278 104.229C183.22 104.301 183.175 104.385 183.144 104.479C183.113 104.572 183.097 104.673 183.097 104.783C183.097 104.98 183.146 105.152 183.244 105.299C183.341 105.445 183.483 105.559 183.669 105.639C183.854 105.72 184.079 105.761 184.343 105.761C184.615 105.761 184.844 105.72 185.029 105.639C185.214 105.557 185.354 105.443 185.448 105.297C185.542 105.15 185.59 104.981 185.59 104.788C185.59 104.68 185.575 104.58 185.547 104.488C185.518 104.395 185.477 104.313 185.422 104.24C185.366 104.168 185.298 104.109 185.219 104.062C185.139 104.013 185.049 103.98 184.947 103.961L184.951 103.145C185.126 103.166 185.295 103.219 185.457 103.303C185.619 103.387 185.764 103.499 185.891 103.641C186.018 103.781 186.119 103.949 186.193 104.144C186.267 104.337 186.303 104.557 186.303 104.801C186.303 105.141 186.226 105.446 186.072 105.714C185.918 105.981 185.695 106.192 185.403 106.347C185.112 106.501 184.758 106.578 184.343 106.578C183.927 106.578 183.573 106.5 183.282 106.344C182.99 106.187 182.768 105.975 182.615 105.707C182.461 105.438 182.384 105.136 182.384 104.801C182.384 104.58 182.415 104.375 182.477 104.186C182.539 103.996 182.63 103.828 182.749 103.682C182.867 103.535 183.012 103.416 183.183 103.324C183.354 103.231 183.551 103.171 183.772 103.145ZM186.307 101.289C186.307 101.578 186.245 101.828 186.122 102.04C185.998 102.249 185.826 102.412 185.605 102.526C185.382 102.64 185.125 102.697 184.832 102.697C184.536 102.697 184.278 102.64 184.057 102.526C183.834 102.412 183.662 102.249 183.539 102.04C183.415 101.828 183.352 101.578 183.352 101.289C183.352 100.999 183.415 100.75 183.539 100.54C183.662 100.329 183.834 100.166 184.057 100.052C184.278 99.9377 184.536 99.8806 184.832 99.8806C185.125 99.8806 185.382 99.9377 185.605 100.052C185.826 100.166 185.998 100.329 186.122 100.54C186.245 100.75 186.307 100.999 186.307 101.289ZM185.692 101.285C185.692 101.153 185.655 101.044 185.58 100.955C185.505 100.867 185.402 100.801 185.271 100.756C185.141 100.71 184.992 100.687 184.826 100.687C184.66 100.687 184.511 100.71 184.381 100.756C184.25 100.801 184.147 100.867 184.071 100.955C183.996 101.044 183.958 101.153 183.958 101.285C183.958 101.418 183.996 101.53 184.071 101.62C184.147 101.71 184.25 101.778 184.381 101.823C184.511 101.868 184.66 101.891 184.826 101.891C184.992 101.891 185.141 101.868 185.271 101.823C185.402 101.778 185.505 101.71 185.58 101.62C185.655 101.53 185.692 101.418 185.692 101.285ZM186.251 99.3646H183.39V98.6083H183.895V98.5747C183.727 98.5151 183.595 98.4158 183.498 98.2767C183.401 98.1376 183.352 97.9712 183.352 97.7774C183.352 97.5812 183.401 97.4142 183.5 97.2763C183.596 97.1385 183.728 97.0466 183.895 97.0006V96.9708C183.731 96.9125 183.6 96.8069 183.501 96.6542C183.402 96.5002 183.352 96.3182 183.352 96.1084C183.352 95.8413 183.438 95.6246 183.608 95.4582C183.777 95.2906 184.016 95.2067 184.327 95.2067H186.251V95.9984H184.483C184.324 95.9984 184.205 96.0407 184.126 96.1251C184.046 96.2096 184.006 96.3151 184.006 96.4418C184.006 96.5859 184.052 96.6982 184.144 96.779C184.235 96.8597 184.355 96.9001 184.504 96.9001H186.251V97.6694H184.466C184.326 97.6694 184.214 97.7098 184.131 97.7905C184.048 97.87 184.006 97.9749 184.006 98.1053C184.006 98.1935 184.029 98.2729 184.073 98.3437C184.117 98.4133 184.178 98.4685 184.258 98.5095C184.336 98.5505 184.428 98.571 184.533 98.571H186.251V99.3646Z" fill="white"/>
</g>
<path d="M38.2215 122.691L38.7166 122.196L38.7667 122.209C38.7935 122.214 38.8582 122.216 38.9607 122.216C39.2082 122.216 39.3911 122.128 39.5093 121.952C39.6297 121.776 39.7412 121.431 39.8437 120.918L40.3756 118.236H39.5293C38.6708 118.236 38.2416 118.575 38.2416 119.252C38.2416 119.333 38.2516 119.432 38.2717 119.55L37.576 119.875C37.6696 119.219 37.954 118.699 38.4289 118.316C38.9039 117.932 39.5015 117.741 40.2217 117.741H41.6399C42.2799 117.741 42.7035 117.698 42.9109 117.614C43.1183 117.529 43.2588 117.34 43.3323 117.048L43.8341 116.844C43.678 117.259 43.3769 117.595 42.931 117.851C42.485 118.107 41.9788 118.236 41.4124 118.236H41.078L40.613 120.567C40.5305 120.986 40.4079 121.317 40.2451 121.56C40.0846 121.801 39.8315 122.032 39.4859 122.253L40.7769 122.28L40.312 122.775L38.2215 122.691ZM42.4025 122.731L42.65 121.701L43.1082 119.39C43.2688 118.582 43.5709 117.955 44.0147 117.507C44.4606 117.056 45.0025 116.831 45.6402 116.831C45.861 116.831 46.0617 116.854 46.2423 116.901L45.7841 117.379C45.5232 117.261 45.3002 117.202 45.1151 117.202C44.7606 117.202 44.4941 117.331 44.3157 117.59C44.1373 117.847 43.9768 118.336 43.8341 119.058L43.4728 120.875H43.5263C43.8028 120.304 44.1173 119.846 44.4696 119.5C44.8219 119.152 45.1486 118.978 45.4496 118.978C45.8175 118.978 46.0015 119.181 46.0015 119.587C46.0015 119.721 45.9825 119.881 45.9446 120.069L45.6202 121.701C45.5689 121.957 45.5432 122.125 45.5432 122.203C45.5432 122.343 45.609 122.413 45.7406 122.413C45.9636 122.413 46.2958 122.168 46.7373 121.677L46.6771 121.989C46.1888 122.513 45.7506 122.775 45.3626 122.775C45.0415 122.775 44.881 122.606 44.881 122.269C44.881 122.158 44.9066 121.968 44.9579 121.701L45.2857 120.062C45.3102 119.935 45.3225 119.828 45.3225 119.741C45.3225 119.56 45.2556 119.47 45.1218 119.47C44.6981 119.47 44.1072 120.146 43.3491 121.497L43.1082 122.691L42.4025 122.731ZM49.9751 121.778L49.9249 122.035C49.2158 122.528 48.6115 122.775 48.112 122.775C47.7954 122.775 47.5378 122.664 47.3394 122.443C47.1432 122.22 47.045 121.933 47.045 121.58C47.045 120.952 47.2859 120.361 47.7675 119.808C48.2492 119.252 48.7631 118.975 49.3095 118.975C49.5079 118.975 49.6685 119.042 49.7911 119.176C49.9137 119.309 49.9751 119.483 49.9751 119.697C49.9751 120.125 49.7565 120.493 49.3195 120.801C48.8824 121.109 48.3607 121.263 47.7541 121.263L47.7508 121.413C47.7508 122.064 47.9894 122.39 48.4666 122.39C48.8791 122.39 49.3819 122.186 49.9751 121.778ZM47.7608 121.055C48.2603 121.015 48.6505 120.887 48.9315 120.671C49.2125 120.452 49.3529 120.17 49.3529 119.824C49.3529 119.483 49.2292 119.313 48.9817 119.313C48.7141 119.313 48.4554 119.491 48.2057 119.848C47.9559 120.202 47.8076 120.605 47.7608 121.055ZM51.9685 123.316L52.4268 122.851C52.6275 123.282 52.9385 123.497 53.36 123.497C53.6387 123.497 53.8561 123.391 54.0122 123.179C54.1705 122.967 54.301 122.606 54.4035 122.096L55.1695 118.236H54.2764L54.748 117.741H56.9021L56.387 118.236H55.8719L55.2197 121.514C55.0747 122.236 54.8194 122.791 54.4537 123.179C54.088 123.569 53.6376 123.765 53.1024 123.765C52.6877 123.765 52.3097 123.615 51.9685 123.316ZM56.5776 122.731L56.8252 121.701L57.2834 119.39C57.4439 118.582 57.7461 117.955 58.1898 117.507C58.6358 117.056 59.1776 116.831 59.8154 116.831C60.0361 116.831 60.2368 116.854 60.4174 116.901L59.9592 117.379C59.6983 117.261 59.4753 117.202 59.2902 117.202C58.9357 117.202 58.6692 117.331 58.4908 117.59C58.3125 117.847 58.1519 118.336 58.0092 119.058L57.648 120.875H57.7015C57.978 120.304 58.2924 119.846 58.6447 119.5C58.997 119.152 59.3237 118.978 59.6247 118.978C59.9926 118.978 60.1766 119.181 60.1766 119.587C60.1766 119.721 60.1577 119.881 60.1198 120.069L59.7953 121.701C59.744 121.957 59.7184 122.125 59.7184 122.203C59.7184 122.343 59.7842 122.413 59.9157 122.413C60.1387 122.413 60.471 122.168 60.9125 121.677L60.8523 121.989C60.3639 122.513 59.9258 122.775 59.5378 122.775C59.2167 122.775 59.0561 122.606 59.0561 122.269C59.0561 122.158 59.0818 121.968 59.133 121.701L59.4608 120.062C59.4854 119.935 59.4976 119.828 59.4976 119.741C59.4976 119.56 59.4307 119.47 59.2969 119.47C58.8733 119.47 58.2824 120.146 57.5242 121.497L57.2834 122.691L56.5776 122.731ZM63.8391 120.875H63.7789C63.527 121.434 63.2237 121.892 62.8692 122.246C62.5146 122.598 62.1824 122.775 61.8724 122.775C61.4019 122.775 61.1667 122.48 61.1667 121.892C61.1667 121.243 61.4253 120.607 61.9427 119.985C62.4778 119.341 63.1312 119.018 63.9027 119.018C64.2216 119.018 64.5549 119.032 64.9028 119.058L64.662 120.049L64.3375 121.701C64.2862 121.96 64.2606 122.127 64.2606 122.203C64.2606 122.343 64.3264 122.413 64.4579 122.413C64.6809 122.413 65.0132 122.168 65.4547 121.677L65.3945 121.989C64.9061 122.513 64.468 122.775 64.08 122.775C63.7566 122.775 63.595 122.606 63.595 122.269C63.595 122.158 63.6217 121.968 63.6752 121.701L63.8391 120.875ZM64.1067 119.537C63.8258 119.412 63.5481 119.349 63.2739 119.349C62.868 119.349 62.5436 119.606 62.3005 120.119C62.0151 120.725 61.8724 121.271 61.8724 121.754C61.8724 122.104 61.975 122.28 62.1801 122.28C62.3719 122.28 62.6473 122.079 63.0063 121.677C63.3675 121.274 63.6842 120.813 63.9562 120.296L64.1067 119.537ZM66.0734 122.731L66.321 121.701L66.6454 120.065C66.6788 119.9 66.6956 119.758 66.6956 119.637C66.6956 119.445 66.6287 119.349 66.4949 119.349C66.2585 119.349 65.9207 119.601 65.4814 120.105L65.5416 119.808C66.0567 119.252 66.5038 118.975 66.8829 118.975C67.204 118.975 67.3645 119.159 67.3645 119.527C67.3645 119.69 67.3445 119.87 67.3043 120.069L67.1438 120.875H67.1873C67.4526 120.317 67.7659 119.862 68.1271 119.51C68.4906 119.155 68.8228 118.978 69.1239 118.978C69.28 118.978 69.4193 119.013 69.542 119.082L69.0971 119.684C68.9656 119.597 68.8541 119.554 68.7626 119.554C68.3278 119.554 67.7492 120.192 67.0267 121.47L66.7825 122.691L66.0734 122.731ZM70.6859 122.775C70.3938 122.775 70.1496 122.661 69.9534 122.433C69.7594 122.204 69.6624 121.918 69.6624 121.577C69.6624 120.935 69.9054 120.342 70.3915 119.798C70.8777 119.251 71.4072 118.978 71.9803 118.978C72.2903 118.978 72.5456 119.09 72.7463 119.313C72.9469 119.536 73.0473 119.82 73.0473 120.166C73.0473 120.832 72.8042 121.434 72.3181 121.972C71.832 122.507 71.2879 122.775 70.6859 122.775ZM71.0672 122.484C71.3972 122.484 71.6871 122.272 71.9368 121.848C72.1888 121.422 72.3148 120.928 72.3148 120.366C72.3148 119.628 72.0896 119.259 71.6391 119.259C71.3203 119.259 71.0326 119.479 70.7762 119.918C70.522 120.355 70.3949 120.848 70.3949 121.396C70.3949 122.121 70.619 122.484 71.0672 122.484ZM73.5858 122.731L73.8333 121.701L74.2915 119.39C74.4521 118.582 74.7542 117.955 75.198 117.507C75.6439 117.056 76.1858 116.831 76.8235 116.831C77.0443 116.831 77.245 116.854 77.4256 116.901L76.9674 117.379C76.7065 117.261 76.4835 117.202 76.2984 117.202C76.0018 117.202 75.7577 117.304 75.5659 117.507C75.4544 117.625 75.3663 117.773 75.3017 117.951C75.2392 118.13 75.1445 118.499 75.0174 119.058L74.6862 120.52H74.7264C74.936 120.061 75.2114 119.69 75.5525 119.406C75.8959 119.121 76.2382 118.978 76.5794 118.978C76.9562 118.978 77.1446 119.16 77.1446 119.523C77.1446 119.902 76.9908 120.22 76.6831 120.477C76.3753 120.733 75.9372 120.908 75.3686 121.002C76.0018 121.88 76.4712 122.32 76.7767 122.32C76.9707 122.32 77.2126 122.185 77.5025 121.915L77.4557 122.152C77.012 122.567 76.6574 122.775 76.3921 122.775C76.178 122.775 75.9617 122.67 75.7432 122.46C75.5269 122.248 75.1523 121.782 74.6193 121.062L74.2949 122.691L73.5858 122.731ZM74.6561 120.875L74.6494 120.918H74.7632C75.2314 120.918 75.6361 120.791 75.9773 120.537C76.3185 120.283 76.4891 119.983 76.4891 119.637C76.4891 119.419 76.4021 119.309 76.2282 119.309C75.8513 119.309 75.3273 119.831 74.6561 120.875ZM77.8905 122.731L78.138 121.701L78.5963 119.39C78.7568 118.582 79.059 117.955 79.5027 117.507C79.9487 117.056 80.4905 116.831 81.1283 116.831C81.349 116.831 81.5497 116.854 81.7303 116.901L81.2721 117.379C81.0112 117.261 80.7882 117.202 80.6031 117.202C80.2486 117.202 79.9821 117.331 79.8037 117.59C79.6253 117.847 79.4648 118.336 79.3221 119.058L78.9608 120.875H79.0144C79.2909 120.304 79.6053 119.846 79.9576 119.5C80.3099 119.152 80.6366 118.978 80.9376 118.978C81.3055 118.978 81.4895 119.181 81.4895 119.587C81.4895 119.721 81.4705 119.881 81.4326 120.069L81.1082 121.701C81.0569 121.957 81.0313 122.125 81.0313 122.203C81.0313 122.343 81.097 122.413 81.2286 122.413C81.4516 122.413 81.7838 122.168 82.2253 121.677L82.1651 121.989C81.6768 122.513 81.2386 122.775 80.8506 122.775C80.5295 122.775 80.369 122.606 80.369 122.269C80.369 122.158 80.3946 121.968 80.4459 121.701L80.7737 120.062C80.7982 119.935 80.8105 119.828 80.8105 119.741C80.8105 119.56 80.7436 119.47 80.6098 119.47C80.1861 119.47 79.5952 120.146 78.8371 121.497L78.5963 122.691L77.8905 122.731ZM85.152 120.875H85.0918C84.8398 121.434 84.5366 121.892 84.182 122.246C83.8275 122.598 83.4952 122.775 83.1853 122.775C82.7148 122.775 82.4795 122.48 82.4795 121.892C82.4795 121.243 82.7382 120.607 83.2555 119.985C83.7907 119.341 84.444 119.018 85.2156 119.018C85.5344 119.018 85.8678 119.032 86.2157 119.058L85.9748 120.049L85.6504 121.701C85.5991 121.96 85.5735 122.127 85.5735 122.203C85.5735 122.343 85.6392 122.413 85.7708 122.413C85.9938 122.413 86.326 122.168 86.7675 121.677L86.7073 121.989C86.219 122.513 85.7808 122.775 85.3928 122.775C85.0695 122.775 84.9078 122.606 84.9078 122.269C84.9078 122.158 84.9346 121.968 84.9881 121.701L85.152 120.875ZM85.4196 119.537C85.1386 119.412 84.861 119.349 84.5868 119.349C84.1809 119.349 83.8565 119.606 83.6134 120.119C83.328 120.725 83.1853 121.271 83.1853 121.754C83.1853 122.104 83.2879 122.28 83.493 122.28C83.6848 122.28 83.9602 122.079 84.3192 121.677C84.6804 121.274 84.997 120.813 85.2691 120.296L85.4196 119.537ZM91.2763 122.815C90.7278 122.815 90.2929 122.644 89.9718 122.303C89.653 121.962 89.4935 121.499 89.4935 120.915C89.4935 120.039 89.7946 119.269 90.3966 118.607C91.0009 117.945 91.7022 117.614 92.5005 117.614C93.0446 117.614 93.4749 117.782 93.7916 118.119C94.1104 118.453 94.2699 118.908 94.2699 119.483C94.2699 120.398 93.9755 121.181 93.3868 121.835C92.8004 122.488 92.0969 122.815 91.2763 122.815ZM91.4067 122.587C91.9865 122.587 92.4838 122.281 92.8985 121.667C93.3133 121.054 93.5206 120.318 93.5206 119.46C93.5206 118.372 93.1427 117.828 92.3868 117.828C91.807 117.828 91.3086 118.131 90.8916 118.737C90.4747 119.344 90.2662 120.071 90.2662 120.918C90.2662 122.031 90.6464 122.587 91.4067 122.587ZM92.6577 124.875L93.136 124.377C93.3501 124.464 93.5686 124.507 93.7916 124.507C94.1104 124.507 94.3557 124.399 94.5274 124.183C94.7013 123.966 94.8307 123.609 94.9154 123.109L95.5576 119.306H94.8084L95.0425 119.058H95.6078L95.6178 119.015C95.7449 118.368 96.0381 117.843 96.4975 117.44C96.9568 117.034 97.4898 116.831 98.0963 116.831C98.2903 116.831 98.4698 116.85 98.6348 116.888L98.1565 117.396C97.9491 117.267 97.7362 117.202 97.5176 117.202C97.1832 117.202 96.9345 117.301 96.7718 117.5C96.609 117.696 96.4752 118.057 96.3704 118.584L96.2734 119.058H97.5243L97.2534 119.356C96.9702 119.323 96.6859 119.306 96.4005 119.306H96.2266L95.7382 122.183C95.591 123.057 95.2978 123.731 94.8585 124.206C94.4193 124.681 93.8685 124.919 93.2062 124.919C93.0323 124.919 92.8495 124.904 92.6577 124.875ZM99.5479 122.504L100.013 122.029C100.423 122.361 100.848 122.527 101.287 122.527C101.593 122.527 101.842 122.441 102.036 122.269C102.23 122.096 102.327 121.873 102.327 121.601C102.327 121.333 102.145 121.037 101.779 120.714L101.307 120.296C100.957 119.988 100.74 119.772 100.655 119.647C100.573 119.522 100.531 119.355 100.531 119.145C100.531 118.728 100.707 118.369 101.06 118.068C101.412 117.765 101.832 117.614 102.321 117.614C102.631 117.614 102.994 117.706 103.411 117.891L103.244 118.731H103.033C103.038 118.662 103.04 118.614 103.04 118.587C103.04 118.375 102.955 118.204 102.786 118.075C102.616 117.946 102.392 117.881 102.113 117.881C101.826 117.881 101.584 117.967 101.388 118.139C101.191 118.308 101.093 118.519 101.093 118.771C101.093 118.94 101.142 119.095 101.24 119.236C101.341 119.376 101.548 119.58 101.862 119.848L102.257 120.189C102.696 120.566 102.916 120.918 102.916 121.246C102.916 121.676 102.71 122.045 102.297 122.353C101.885 122.661 101.393 122.815 100.822 122.815C100.385 122.815 99.9604 122.711 99.5479 122.504ZM104.662 119.306H103.896L104.127 119.058H104.709L104.9 118.112L105.592 117.945L105.371 119.058H106.632L106.358 119.353C106.07 119.322 105.815 119.306 105.592 119.306H105.321L104.866 121.597C104.819 121.834 104.796 122 104.796 122.096C104.796 122.272 104.874 122.36 105.03 122.36C105.271 122.36 105.6 122.181 106.017 121.825L105.956 122.132C105.524 122.56 105.108 122.775 104.709 122.775C104.33 122.775 104.14 122.565 104.14 122.146C104.14 121.996 104.165 121.798 104.214 121.55L104.662 119.306ZM107.087 124.822L107.549 124.353C107.769 124.483 108.006 124.547 108.258 124.547C108.568 124.547 108.808 124.437 108.98 124.216C109.154 123.995 109.311 123.594 109.452 123.012L109.97 120.875H109.927C109.666 121.405 109.4 121.841 109.131 122.183C108.861 122.521 108.648 122.691 108.492 122.691C108.329 122.691 108.206 122.604 108.124 122.43C108.044 122.254 107.973 121.928 107.913 121.453L107.753 120.152C107.692 119.671 107.591 119.43 107.448 119.43C107.31 119.43 107.086 119.625 106.776 120.015L106.843 119.674C107.193 119.21 107.524 118.978 107.836 118.978C108.015 118.978 108.142 119.058 108.218 119.219C108.293 119.38 108.365 119.717 108.432 120.233L108.572 121.35C108.623 121.749 108.708 121.948 108.826 121.948C108.965 121.948 109.16 121.755 109.412 121.37C109.456 121.298 109.705 120.885 110.158 120.129L110.412 119.058L111.124 119.018L110.826 120.062L110.241 122.44C110.043 123.245 109.726 123.859 109.291 124.283C108.859 124.707 108.328 124.919 107.699 124.919C107.461 124.919 107.256 124.886 107.087 124.822ZM113.703 121.661L113.643 121.968C113.117 122.506 112.664 122.775 112.285 122.775C111.968 122.775 111.81 122.604 111.81 122.263C111.81 122.122 111.833 121.934 111.88 121.698L112.338 119.39C112.499 118.582 112.801 117.955 113.245 117.507C113.691 117.056 114.233 116.831 114.87 116.831C115.093 116.831 115.294 116.854 115.472 116.901L115.014 117.379C114.755 117.261 114.532 117.202 114.345 117.202C113.991 117.202 113.724 117.331 113.546 117.59C113.367 117.849 113.207 118.338 113.064 119.058L112.539 121.701C112.488 121.957 112.462 122.125 112.462 122.203C112.462 122.343 112.528 122.413 112.659 122.413C112.809 122.413 113.098 122.215 113.526 121.818C113.559 121.787 113.618 121.734 113.703 121.661ZM116.944 121.778L116.894 122.035C116.185 122.528 115.581 122.775 115.081 122.775C114.764 122.775 114.507 122.664 114.308 122.443C114.112 122.22 114.014 121.933 114.014 121.58C114.014 120.952 114.255 120.361 114.737 119.808C115.218 119.252 115.732 118.975 116.278 118.975C116.477 118.975 116.637 119.042 116.76 119.176C116.883 119.309 116.944 119.483 116.944 119.697C116.944 120.125 116.726 120.493 116.288 120.801C115.851 121.109 115.33 121.263 114.723 121.263L114.72 121.413C114.72 122.064 114.958 122.39 115.436 122.39C115.848 122.39 116.351 122.186 116.944 121.778ZM114.73 121.055C115.229 121.015 115.62 120.887 115.901 120.671C116.181 120.452 116.322 120.17 116.322 119.824C116.322 119.483 116.198 119.313 115.951 119.313C115.683 119.313 115.424 119.491 115.175 119.848C114.925 120.202 114.777 120.605 114.73 121.055ZM117.707 120.875L117.847 120.38H119.372L119.232 120.875H117.707ZM119.854 120.875L119.995 120.38H121.52L121.379 120.875H119.854ZM121.409 122.691L121.884 122.196H122.078C122.344 122.196 122.538 122.119 122.66 121.965C122.783 121.811 122.889 121.514 122.978 121.072L123.319 119.36C123.42 118.853 123.65 118.436 124.012 118.109C124.373 117.779 124.783 117.614 125.242 117.614C125.448 117.614 125.685 117.687 125.955 117.834L125.788 118.667H125.574C125.58 118.609 125.584 118.561 125.584 118.523C125.584 118.109 125.37 117.901 124.941 117.901C124.52 117.901 124.238 118.261 124.095 118.982L123.787 120.52C123.696 120.982 123.568 121.336 123.403 121.584C123.24 121.831 122.986 122.051 122.64 122.243L124.51 122.273C125.047 122.273 125.52 122.148 125.928 121.898L125.878 122.149C125.566 122.426 125.331 122.603 125.172 122.681C125.016 122.757 124.809 122.795 124.55 122.795L121.409 122.691ZM129.54 121.778L129.49 122.035C128.781 122.528 128.177 122.775 127.677 122.775C127.361 122.775 127.103 122.664 126.905 122.443C126.709 122.22 126.61 121.933 126.61 121.58C126.61 120.952 126.851 120.361 127.333 119.808C127.815 119.252 128.329 118.975 128.875 118.975C129.073 118.975 129.234 119.042 129.357 119.176C129.479 119.309 129.54 119.483 129.54 119.697C129.54 120.125 129.322 120.493 128.885 120.801C128.448 121.109 127.926 121.263 127.32 121.263L127.316 121.413C127.316 122.064 127.555 122.39 128.032 122.39C128.445 122.39 128.947 122.186 129.54 121.778ZM127.326 121.055C127.826 121.015 128.216 120.887 128.497 120.671C128.778 120.452 128.918 120.17 128.918 119.824C128.918 119.483 128.795 119.313 128.547 119.313C128.279 119.313 128.021 119.491 127.771 119.848C127.521 120.202 127.373 120.605 127.326 121.055ZM130.691 122.637C130.423 122.504 130.29 122.235 130.29 121.831C130.29 121.171 130.557 120.534 131.092 119.918C131.612 119.318 132.258 119.018 133.029 119.018C133.176 119.018 133.487 119.032 133.962 119.058L133.725 120.049L133.568 120.825C133.487 121.233 133.433 121.534 133.404 121.728C133.281 122.519 133.157 123.068 133.032 123.373C132.91 123.681 132.691 123.982 132.377 124.276C131.915 124.704 131.383 124.919 130.781 124.919C130.389 124.919 130.07 124.842 129.825 124.688C129.579 124.536 129.457 124.338 129.457 124.092C129.457 123.602 129.868 123.117 130.691 122.637ZM133.163 119.547C132.895 119.415 132.629 119.349 132.363 119.349C132.067 119.349 131.816 119.482 131.611 119.748C131.448 119.957 131.3 120.267 131.166 120.677C131.034 121.085 130.969 121.434 130.969 121.724C130.969 122.039 131.068 122.196 131.266 122.196C131.706 122.196 132.289 121.562 133.016 120.293L133.163 119.547ZM132.899 120.875H132.845C132.609 121.399 132.326 121.82 131.996 122.139C131.666 122.458 131.319 122.645 130.955 122.701C130.371 123.105 130.079 123.479 130.079 123.825C130.079 124.048 130.187 124.237 130.403 124.393C130.622 124.552 130.886 124.631 131.196 124.631C131.595 124.631 131.91 124.475 132.139 124.163C132.371 123.853 132.536 123.362 132.634 122.691L132.899 120.875ZM137.15 120.875H137.09C136.838 121.434 136.534 121.892 136.18 122.246C135.825 122.598 135.493 122.775 135.183 122.775C134.713 122.775 134.477 122.48 134.477 121.892C134.477 121.243 134.736 120.607 135.253 119.985C135.789 119.341 136.442 119.018 137.213 119.018C137.532 119.018 137.866 119.032 138.213 119.058L137.973 120.049L137.648 121.701C137.597 121.96 137.571 122.127 137.571 122.203C137.571 122.343 137.637 122.413 137.769 122.413C137.992 122.413 138.324 122.168 138.765 121.677L138.705 121.989C138.217 122.513 137.779 122.775 137.391 122.775C137.067 122.775 136.906 122.606 136.906 122.269C136.906 122.158 136.932 121.968 136.986 121.701L137.15 120.875ZM137.417 119.537C137.136 119.412 136.859 119.349 136.585 119.349C136.179 119.349 135.854 119.606 135.611 120.119C135.326 120.725 135.183 121.271 135.183 121.754C135.183 122.104 135.286 122.28 135.491 122.28C135.683 122.28 135.958 122.079 136.317 121.677C136.678 121.274 136.995 120.813 137.267 120.296L137.417 119.537ZM142.037 121.771L141.986 122.032C141.255 122.527 140.655 122.775 140.187 122.775C139.864 122.775 139.604 122.665 139.408 122.447C139.211 122.228 139.113 121.939 139.113 121.58C139.113 120.932 139.358 120.336 139.849 119.794C140.34 119.25 140.879 118.978 141.468 118.978C141.727 118.978 141.984 119.035 142.241 119.149L142.016 120.008H141.809L141.819 119.958C141.841 119.853 141.853 119.777 141.853 119.727C141.853 119.42 141.644 119.266 141.227 119.266C140.835 119.266 140.508 119.475 140.247 119.895C139.986 120.314 139.856 120.84 139.856 121.473C139.856 122.078 140.081 122.38 140.531 122.38C140.96 122.38 141.461 122.177 142.037 121.771ZM143.01 124.822L143.471 124.353C143.692 124.483 143.929 124.547 144.181 124.547C144.49 124.547 144.731 124.437 144.903 124.216C145.077 123.995 145.234 123.594 145.375 123.012L145.893 120.875H145.85C145.589 121.405 145.323 121.841 145.054 122.183C144.784 122.521 144.571 122.691 144.415 122.691C144.252 122.691 144.129 122.604 144.047 122.43C143.966 122.254 143.896 121.928 143.836 121.453L143.675 120.152C143.615 119.671 143.514 119.43 143.371 119.43C143.233 119.43 143.009 119.625 142.699 120.015L142.766 119.674C143.116 119.21 143.447 118.978 143.759 118.978C143.937 118.978 144.065 119.058 144.14 119.219C144.216 119.38 144.288 119.717 144.354 120.233L144.495 121.35C144.546 121.749 144.631 121.948 144.749 121.948C144.887 121.948 145.083 121.755 145.334 121.37C145.379 121.298 145.628 120.885 146.08 120.129L146.335 119.058L147.047 119.018L146.749 120.062L146.164 122.44C145.966 123.245 145.649 123.859 145.214 124.283C144.781 124.707 144.251 124.919 143.622 124.919C143.383 124.919 143.179 124.886 143.01 124.822ZM152.636 122.236C152.157 122.622 151.686 122.815 151.225 122.815C150.839 122.815 150.517 122.689 150.258 122.437C150.002 122.185 149.873 121.869 149.873 121.49C149.873 120.774 150.398 120.204 151.449 119.778C151.328 119.441 151.268 119.177 151.268 118.985C151.268 118.635 151.416 118.319 151.713 118.038C152.012 117.755 152.347 117.614 152.72 117.614C152.983 117.614 153.196 117.689 153.359 117.841C153.521 117.993 153.603 118.191 153.603 118.436C153.603 119.05 153.109 119.511 152.121 119.821C152.406 120.586 152.724 121.206 153.074 121.681C153.42 121.32 153.622 120.914 153.68 120.463H152.991L153.308 119.968H154.195C154.634 119.968 154.973 119.896 155.212 119.751L154.951 120.162C154.688 120.363 154.439 120.463 154.205 120.463H154.098C153.924 120.998 153.622 121.46 153.191 121.848C153.508 122.245 153.769 122.443 153.974 122.443C154.148 122.443 154.381 122.346 154.673 122.152C154.698 122.137 154.733 122.113 154.78 122.082L154.73 122.33C154.337 122.653 153.968 122.815 153.623 122.815C153.422 122.815 153.259 122.778 153.134 122.704C153.01 122.631 152.843 122.475 152.636 122.236ZM152.057 119.624C152.722 119.363 153.054 118.958 153.054 118.41C153.054 118.017 152.893 117.821 152.569 117.821C152.366 117.821 152.201 117.905 152.074 118.072C151.949 118.237 151.887 118.454 151.887 118.724C151.887 118.969 151.944 119.269 152.057 119.624ZM152.526 122.065C152.127 121.479 151.785 120.78 151.502 119.968C150.882 120.249 150.572 120.691 150.572 121.293C150.572 121.612 150.668 121.877 150.86 122.089C151.054 122.298 151.298 122.403 151.593 122.403C151.856 122.403 152.167 122.291 152.526 122.065ZM157.8 122.691L158.292 122.196H158.362C158.697 122.196 158.928 122.12 159.055 121.968C159.182 121.815 159.299 121.472 159.406 120.942L159.991 118.002C159.532 118.002 159.161 118.125 158.877 118.373C158.594 118.618 158.453 118.939 158.453 119.336V119.41L157.804 119.724C157.86 119.042 158.125 118.541 158.6 118.222C159.075 117.901 159.789 117.741 160.744 117.741C161.417 117.741 161.898 117.813 162.185 117.958C162.475 118.103 162.62 118.344 162.62 118.681C162.62 119.361 162.107 119.836 161.082 120.105C161.942 120.382 162.373 120.761 162.373 121.243C162.373 121.673 162.138 122.036 161.667 122.333C161.197 122.627 160.618 122.775 159.931 122.775L159.138 122.748L157.8 122.691ZM160.289 120.028H160.463C160.875 120.028 161.217 119.907 161.486 119.664C161.756 119.419 161.891 119.109 161.891 118.734C161.891 118.208 161.523 117.945 160.787 117.945H160.704L160.289 120.028ZM159.045 122.256L159.393 122.333C159.734 122.407 160.093 122.443 160.47 122.443C161.237 122.443 161.62 122.086 161.62 121.37C161.62 121.02 161.505 120.744 161.276 120.544C161.048 120.341 160.737 120.239 160.342 120.239H160.245L160.172 120.614C160.025 121.345 159.649 121.893 159.045 122.256ZM166.085 121.778L166.035 122.035C165.326 122.528 164.722 122.775 164.222 122.775C163.906 122.775 163.648 122.664 163.45 122.443C163.254 122.22 163.155 121.933 163.155 121.58C163.155 120.952 163.396 120.361 163.878 119.808C164.36 119.252 164.874 118.975 165.42 118.975C165.618 118.975 165.779 119.042 165.901 119.176C166.024 119.309 166.085 119.483 166.085 119.697C166.085 120.125 165.867 120.493 165.43 120.801C164.993 121.109 164.471 121.263 163.865 121.263L163.861 121.413C163.861 122.064 164.1 122.39 164.577 122.39C164.989 122.39 165.492 122.186 166.085 121.778ZM163.871 121.055C164.371 121.015 164.761 120.887 165.042 120.671C165.323 120.452 165.463 120.17 165.463 119.824C165.463 119.483 165.34 119.313 165.092 119.313C164.824 119.313 164.566 119.491 164.316 119.848C164.066 120.202 163.918 120.605 163.871 121.055ZM167.019 124.822L167.48 124.353C167.701 124.483 167.937 124.547 168.189 124.547C168.499 124.547 168.74 124.437 168.912 124.216C169.086 123.995 169.243 123.594 169.383 123.012L169.902 120.875H169.858C169.597 121.405 169.332 121.841 169.062 122.183C168.792 122.521 168.58 122.691 168.423 122.691C168.261 122.691 168.138 122.604 168.056 122.43C167.975 122.254 167.905 121.928 167.845 121.453L167.684 120.152C167.624 119.671 167.523 119.43 167.38 119.43C167.242 119.43 167.018 119.625 166.708 120.015L166.774 119.674C167.125 119.21 167.456 118.978 167.768 118.978C167.946 118.978 168.073 119.058 168.149 119.219C168.225 119.38 168.296 119.717 168.363 120.233L168.504 121.35C168.555 121.749 168.64 121.948 168.758 121.948C168.896 121.948 169.091 121.755 169.343 121.37C169.388 121.298 169.636 120.885 170.089 120.129L170.343 119.058L171.056 119.018L170.758 120.062L170.173 122.44C169.974 123.245 169.658 123.859 169.223 124.283C168.79 124.707 168.26 124.919 167.631 124.919C167.392 124.919 167.188 124.886 167.019 124.822ZM172.641 122.775C172.349 122.775 172.105 122.661 171.909 122.433C171.715 122.204 171.618 121.918 171.618 121.577C171.618 120.935 171.861 120.342 172.347 119.798C172.833 119.251 173.363 118.978 173.936 118.978C174.246 118.978 174.501 119.09 174.702 119.313C174.902 119.536 175.003 119.82 175.003 120.166C175.003 120.832 174.76 121.434 174.273 121.972C173.787 122.507 173.243 122.775 172.641 122.775ZM173.022 122.484C173.353 122.484 173.642 122.272 173.892 121.848C174.144 121.422 174.27 120.928 174.27 120.366C174.27 119.628 174.045 119.259 173.594 119.259C173.276 119.259 172.988 119.479 172.731 119.918C172.477 120.355 172.35 120.848 172.35 121.396C172.35 122.121 172.574 122.484 173.022 122.484ZM175.839 122.731L176.086 121.701L176.414 120.049C176.465 119.792 176.491 119.625 176.491 119.547C176.491 119.409 176.425 119.339 176.294 119.339C176.075 119.339 175.743 119.584 175.297 120.072L175.357 119.764C175.843 119.24 176.281 118.978 176.672 118.978C176.993 118.978 177.153 119.145 177.153 119.48C177.153 119.594 177.128 119.783 177.076 120.049L176.912 120.875H176.963C177.241 120.304 177.556 119.846 177.906 119.5C178.258 119.152 178.586 118.978 178.889 118.978C179.255 118.978 179.438 119.181 179.438 119.587C179.438 119.719 179.419 119.879 179.381 120.069L179.056 121.701C179.005 121.96 178.98 122.127 178.98 122.203C178.98 122.343 179.045 122.413 179.177 122.413C179.4 122.413 179.733 122.168 180.177 121.677L180.113 121.989C179.627 122.513 179.189 122.775 178.799 122.775C178.478 122.775 178.317 122.606 178.317 122.269C178.317 122.158 178.344 121.968 178.398 121.701L178.722 120.062C178.749 119.935 178.762 119.828 178.762 119.741C178.762 119.56 178.695 119.47 178.561 119.47C178.136 119.47 177.545 120.146 176.789 121.497L176.545 122.691L175.839 122.731ZM183.1 120.875H183.04C182.784 121.437 182.479 121.894 182.127 122.246C181.775 122.598 181.445 122.775 181.137 122.775C180.664 122.775 180.428 122.479 180.428 121.888C180.428 121.487 180.543 121.066 180.772 120.627C181.004 120.188 181.303 119.819 181.669 119.52C181.914 119.322 182.159 119.189 182.405 119.122C182.65 119.053 183.006 119.018 183.472 119.018C183.603 118.577 183.74 118.24 183.883 118.008C184.026 117.774 184.226 117.556 184.485 117.353C184.927 117.005 185.414 116.831 185.947 116.831C186.167 116.831 186.368 116.854 186.549 116.901L186.091 117.376C185.825 117.26 185.6 117.202 185.415 117.202C185.058 117.202 184.789 117.333 184.609 117.593C184.428 117.852 184.267 118.338 184.124 119.052L183.599 121.701C183.545 121.96 183.518 122.125 183.518 122.196C183.518 122.341 183.584 122.413 183.716 122.413C183.939 122.413 184.272 122.168 184.716 121.677L184.652 121.989C184.166 122.513 183.729 122.775 183.341 122.775C183.018 122.775 182.856 122.606 182.856 122.269C182.856 122.16 182.883 121.971 182.936 121.701L183.1 120.875ZM183.368 119.537C183.091 119.412 182.813 119.349 182.532 119.349C182.128 119.349 181.805 119.606 181.562 120.119C181.274 120.725 181.13 121.271 181.13 121.754C181.13 122.104 181.234 122.28 181.441 122.28C181.633 122.28 181.908 122.078 182.267 121.674C182.629 121.271 182.945 120.81 183.217 120.293L183.368 119.537ZM184.873 122.092L185.529 121.617L186.037 122.269L185.365 122.775L184.873 122.092ZM186.813 122.092L187.469 121.617L187.977 122.269L187.305 122.775L186.813 122.092ZM188.753 122.092L189.409 121.617L189.917 122.269L189.245 122.775L188.753 122.092Z" fill="#651359"/>
<defs>
<filter id="filter0_d_2329_2438" x="16.4603" y="85.564" width="32.1375" height="28.3142" filterUnits="userSpaceOnUse" color-interpolation-filters="sRGB">
<feFlood flood-opacity="0" result="BackgroundImageFix"/>
<feColorMatrix in="SourceAlpha" type="matrix" values="0 0 0 0 0 0 0 0 0 0 0 0 0 0 0 0 0 0 127 0" result="hardAlpha"/>
<feOffset dy="1.21296"/>
<feGaussianBlur stdDeviation="0.519842"/>
<feComposite in2="hardAlpha" operator="out"/>
<feColorMatrix type="matrix" values="0 0 0 0 0 0 0 0 0 0 0 0 0 0 0 0 0 0 0.25 0"/>
<feBlend mode="normal" in2="BackgroundImageFix" result="effect1_dropShadow_2329_2438"/>
<feBlend mode="normal" in="SourceGraphic" in2="effect1_dropShadow_2329_2438" result="shape"/>
</filter>
<filter id="filter1_d_2329_2438" x="48.8968" y="91.1348" width="27.176" height="22.7429" filterUnits="userSpaceOnUse" color-interpolation-filters="sRGB">
<feFlood flood-opacity="0" result="BackgroundImageFix"/>
<feColorMatrix in="SourceAlpha" type="matrix" values="0 0 0 0 0 0 0 0 0 0 0 0 0 0 0 0 0 0 127 0" result="hardAlpha"/>
<feOffset dy="1.21296"/>
<feGaussianBlur stdDeviation="0.519842"/>
<feComposite in2="hardAlpha" operator="out"/>
<feColorMatrix type="matrix" values="0 0 0 0 0 0 0 0 0 0 0 0 0 0 0 0 0 0 0.25 0"/>
<feBlend mode="normal" in2="BackgroundImageFix" result="effect1_dropShadow_2329_2438"/>
<feBlend mode="normal" in="SourceGraphic" in2="effect1_dropShadow_2329_2438" result="shape"/>
</filter>
<filter id="filter2_d_2329_2438" x="79.0257" y="91.1216" width="22.5149" height="22.7546" filterUnits="userSpaceOnUse" color-interpolation-filters="sRGB">
<feFlood flood-opacity="0" result="BackgroundImageFix"/>
<feColorMatrix in="SourceAlpha" type="matrix" values="0 0 0 0 0 0 0 0 0 0 0 0 0 0 0 0 0 0 127 0" result="hardAlpha"/>
<feOffset dy="1.21296"/>
<feGaussianBlur stdDeviation="0.519842"/>
<feComposite in2="hardAlpha" operator="out"/>
<feColorMatrix type="matrix" values="0 0 0 0 0 0 0 0 0 0 0 0 0 0 0 0 0 0 0.25 0"/>
<feBlend mode="normal" in2="BackgroundImageFix" result="effect1_dropShadow_2329_2438"/>
<feBlend mode="normal" in="SourceGraphic" in2="effect1_dropShadow_2329_2438" result="shape"/>
</filter>
<filter id="filter3_d_2329_2438" x="99.348" y="64.9956" width="66.617" height="48.882" filterUnits="userSpaceOnUse" color-interpolation-filters="sRGB">
<feFlood flood-opacity="0" result="BackgroundImageFix"/>
<feColorMatrix in="SourceAlpha" type="matrix" values="0 0 0 0 0 0 0 0 0 0 0 0 0 0 0 0 0 0 127 0" result="hardAlpha"/>
<feOffset dy="1.21296"/>
<feGaussianBlur stdDeviation="0.519842"/>
<feComposite in2="hardAlpha" operator="out"/>
<feColorMatrix type="matrix" values="0 0 0 0 0 0 0 0 0 0 0 0 0 0 0 0 0 0 0.25 0"/>
<feBlend mode="normal" in2="BackgroundImageFix" result="effect1_dropShadow_2329_2438"/>
<feBlend mode="normal" in="SourceGraphic" in2="effect1_dropShadow_2329_2438" result="shape"/>
</filter>
<filter id="filter4_d_2329_2438" x="123.335" y="83.7012" width="26.1721" height="30.1755" filterUnits="userSpaceOnUse" color-interpolation-filters="sRGB">
<feFlood flood-opacity="0" result="BackgroundImageFix"/>
<feColorMatrix in="SourceAlpha" type="matrix" values="0 0 0 0 0 0 0 0 0 0 0 0 0 0 0 0 0 0 127 0" result="hardAlpha"/>
<feOffset dy="1.21296"/>
<feGaussianBlur stdDeviation="0.519842"/>
<feComposite in2="hardAlpha" operator="out"/>
<feColorMatrix type="matrix" values="0 0 0 0 0 0 0 0 0 0 0 0 0 0 0 0 0 0 0.25 0"/>
<feBlend mode="normal" in2="BackgroundImageFix" result="effect1_dropShadow_2329_2438"/>
<feBlend mode="normal" in="SourceGraphic" in2="effect1_dropShadow_2329_2438" result="shape"/>
</filter>
<filter id="filter5_d_2329_2438" x="150.621" y="91.1348" width="27.1736" height="22.7429" filterUnits="userSpaceOnUse" color-interpolation-filters="sRGB">
<feFlood flood-opacity="0" result="BackgroundImageFix"/>
<feColorMatrix in="SourceAlpha" type="matrix" values="0 0 0 0 0 0 0 0 0 0 0 0 0 0 0 0 0 0 127 0" result="hardAlpha"/>
<feOffset dy="1.21296"/>
<feGaussianBlur stdDeviation="0.519842"/>
<feComposite in2="hardAlpha" operator="out"/>
<feColorMatrix type="matrix" values="0 0 0 0 0 0 0 0 0 0 0 0 0 0 0 0 0 0 0.25 0"/>
<feBlend mode="normal" in2="BackgroundImageFix" result="effect1_dropShadow_2329_2438"/>
<feBlend mode="normal" in="SourceGraphic" in2="effect1_dropShadow_2329_2438" result="shape"/>
</filter>
<filter id="filter6_d_2329_2438" x="-1.03968" y="82.481" width="17.8479" height="34.9016" filterUnits="userSpaceOnUse" color-interpolation-filters="sRGB">
<feFlood flood-opacity="0" result="BackgroundImageFix"/>
<feColorMatrix in="SourceAlpha" type="matrix" values="0 0 0 0 0 0 0 0 0 0 0 0 0 0 0 0 0 0 127 0" result="hardAlpha"/>
<feOffset dy="1.21296"/>
<feGaussianBlur stdDeviation="0.519842"/>
<feComposite in2="hardAlpha" operator="out"/>
<feColorMatrix type="matrix" values="0 0 0 0 0 0 0 0 0 0 0 0 0 0 0 0 0 0 0.25 0"/>
<feBlend mode="normal" in2="BackgroundImageFix" result="effect1_dropShadow_2329_2438"/>
<feBlend mode="normal" in="SourceGraphic" in2="effect1_dropShadow_2329_2438" result="shape"/>
</filter>
<filter id="filter7_d_2329_2438" x="181.684" y="95.2065" width="5.3217" height="14.2641" filterUnits="userSpaceOnUse" color-interpolation-filters="sRGB">
<feFlood flood-opacity="0" result="BackgroundImageFix"/>
<feColorMatrix in="SourceAlpha" type="matrix" values="0 0 0 0 0 0 0 0 0 0 0 0 0 0 0 0 0 0 127 0" result="hardAlpha"/>
<feOffset dy="0.699426"/>
<feGaussianBlur stdDeviation="0.349713"/>
<feComposite in2="hardAlpha" operator="out"/>
<feColorMatrix type="matrix" values="0 0 0 0 0 0 0 0 0 0 0 0 0 0 0 0 0 0 0.25 0"/>
<feBlend mode="normal" in2="BackgroundImageFix" result="effect1_dropShadow_2329_2438"/>
<feBlend mode="normal" in="SourceGraphic" in2="effect1_dropShadow_2329_2438" result="shape"/>
</filter>
<linearGradient id="paint0_linear_2329_2438" x1="135.201" y1="65" x2="109.179" y2="111.387" gradientUnits="userSpaceOnUse">
<stop stop-color="#7D3573"/>
<stop offset="1" stop-color="#B850AA"/>
</linearGradient>
<linearGradient id="paint1_linear_2329_2438" x1="8.50602" y1="82.4841" x2="-10.6453" y2="94.397" gradientUnits="userSpaceOnUse">
<stop stop-color="#7D3573"/>
<stop offset="1" stop-color="#B850AA"/>
</linearGradient>
<clipPath id="clip0_2329_2438">
<rect width="15.7685" height="45.6996" fill="white" transform="translate(0 78.1455)"/>
</clipPath>
</defs>
</svg>
